<?xml version="1.0" encoding="UTF-8" ?>
<!DOCTYPE svg PUBLIC "-//W3C//DTD SVG 1.1//EN" "http://www.w3.org/Graphics/SVG/1.1/DTD/svg11.dtd">
<svg width="1153pt" height="1011pt" viewBox="0 0 1153 1011" version="1.1" xmlns="http://www.w3.org/2000/svg">
<g id="#123753ff">
<path fill="#123753" opacity="1.00" d=" M 575.41 0.00 L 576.66 0.00 C 681.65 61.89 786.86 123.41 891.92 185.17 C 891.66 270.23 892.99 355.30 891.60 440.35 C 873.00 451.13 854.59 462.23 836.06 473.13 C 835.86 533.74 836.11 594.35 835.97 654.97 C 808.65 655.05 781.34 655.04 754.03 654.97 C 754.05 618.09 753.90 581.20 753.87 544.32 C 762.50 539.04 771.14 533.78 779.95 528.82 C 780.25 561.81 779.58 594.81 780.29 627.80 C 789.84 628.00 799.40 628.00 808.97 628.04 C 809.29 572.70 808.56 517.35 809.20 462.03 C 807.90 457.49 811.72 454.80 814.87 452.83 C 831.74 443.15 848.46 433.21 865.02 423.00 C 864.76 349.50 865.47 275.99 864.65 202.49 C 815.94 172.48 766.06 144.43 717.10 114.84 C 713.51 113.05 709.02 109.14 704.87 111.79 C 679.96 126.67 654.74 141.01 629.76 155.77 C 601.24 172.17 573.27 189.52 544.51 205.50 C 542.81 206.67 540.65 207.95 540.36 210.19 C 538.64 233.23 541.53 256.40 539.36 279.41 C 537.09 283.22 532.61 284.85 529.06 287.13 C 519.76 292.66 509.77 297.26 501.60 304.47 C 500.15 306.37 500.65 309.02 500.46 311.27 C 500.80 324.84 501.10 338.45 500.01 352.00 C 494.08 351.92 488.15 351.81 482.24 351.71 C 481.79 332.30 481.79 312.88 482.35 293.48 C 493.26 286.12 504.79 279.77 516.15 273.17 C 518.27 271.50 522.02 270.34 521.85 267.02 C 522.54 251.26 522.00 235.47 522.31 219.69 C 502.11 229.83 483.45 242.78 463.55 253.50 C 460.08 256.01 454.03 257.66 454.61 262.93 C 454.83 347.05 455.11 431.18 454.88 515.31 C 445.34 510.30 436.07 504.81 427.05 498.94 C 426.92 413.62 427.06 328.30 426.98 242.98 C 511.07 192.54 596.22 143.87 680.35 93.50 C 668.72 86.41 656.98 79.51 645.11 72.85 C 621.88 59.73 599.45 45.22 575.96 32.55 C 548.50 47.55 522.03 64.33 495.00 80.07 C 492.80 81.13 490.21 82.23 487.80 81.18 C 478.95 77.27 470.95 71.76 462.58 66.97 C 499.36 43.28 537.96 22.58 575.41 0.00 Z" />
<path fill="#123753" opacity="1.00" d=" M 443.86 77.92 C 481.81 99.73 519.36 122.22 557.20 144.22 C 549.25 149.29 541.49 154.68 533.23 159.23 C 529.57 161.14 526.00 157.56 522.90 156.16 C 500.53 141.84 476.96 129.56 454.46 115.45 C 450.88 113.79 447.52 110.30 443.37 110.54 C 435.11 114.14 427.71 119.42 419.89 123.84 C 378.97 147.99 338.31 172.56 296.97 195.99 C 292.95 199.15 285.34 201.22 287.08 207.99 C 286.88 279.63 287.02 351.28 287.04 422.92 C 305.59 434.12 324.36 444.97 342.85 456.27 C 343.22 513.53 342.86 570.79 343.02 628.05 C 352.57 628.01 362.12 628.04 371.68 627.78 C 372.42 600.16 371.77 572.53 372.03 544.91 C 381.12 548.74 389.68 553.70 397.97 559.04 C 398.03 591.02 398.02 623.00 397.98 654.98 C 370.42 654.54 342.85 655.72 315.31 654.99 C 316.09 637.42 315.20 619.85 315.51 602.27 C 316.56 577.92 315.77 553.55 315.69 529.19 C 316.28 510.51 315.86 491.83 315.81 473.15 C 297.29 461.95 278.44 451.30 260.15 439.72 C 259.89 354.85 259.82 269.99 260.04 185.12 C 321.24 149.25 382.45 113.42 443.86 77.92 Z" />
<path fill="#123753" opacity="1.00" d=" M 632.31 381.30 C 644.22 377.75 656.36 374.03 668.86 373.59 C 671.48 382.05 669.32 392.05 669.68 401.11 C 670.61 434.98 668.93 468.84 669.99 502.70 C 639.01 504.69 607.83 514.63 584.06 535.15 C 583.90 496.76 584.10 458.36 583.88 419.97 C 583.94 416.41 583.42 412.05 586.35 409.33 C 598.41 395.62 614.98 386.56 632.31 381.30 Z" />
<path fill="#123753" opacity="1.00" d=" M 482.00 373.67 C 499.66 374.09 516.90 379.06 533.11 385.86 C 543.09 389.77 551.89 396.11 560.05 402.97 C 564.03 406.52 568.85 411.00 567.87 417.00 C 568.24 456.05 567.93 495.12 567.94 534.18 C 543.90 514.40 513.05 505.25 482.46 502.55 C 482.73 459.58 482.06 416.63 482.00 373.67 Z" />
<path fill="#123753" opacity="1.00" d=" M 260.14 465.68 C 269.61 470.76 279.49 475.74 287.34 483.16 C 286.79 549.98 286.82 616.85 287.24 683.68 C 333.81 684.41 380.40 683.83 426.98 683.98 C 427.12 648.20 426.81 612.42 427.11 576.65 C 435.60 581.18 443.92 586.01 452.24 590.84 C 455.76 592.43 454.53 597.07 454.96 600.00 C 454.94 636.95 455.25 673.93 454.86 710.88 C 449.94 712.91 444.18 711.56 439.01 712.12 C 379.35 711.84 319.68 712.10 260.02 711.98 C 260.06 629.88 259.83 547.78 260.14 465.68 Z" />
<path fill="#123753" opacity="1.00" d=" M 865.02 482.04 C 873.75 476.23 882.56 470.50 891.83 465.58 C 892.20 547.71 891.92 629.84 891.98 711.98 C 827.30 712.01 762.63 712.03 697.96 711.97 C 696.93 701.33 697.70 690.65 697.77 679.99 C 698.27 663.69 696.59 647.41 697.25 631.12 C 697.90 613.14 696.96 595.15 697.03 577.17 C 706.37 571.76 715.32 565.70 724.83 560.57 C 725.40 601.60 724.53 642.65 725.25 683.68 C 771.72 684.25 818.21 684.14 864.68 683.76 C 865.45 616.53 864.75 549.28 865.02 482.04 Z" />
<path fill="#123753" opacity="1.00" d=" M 352.02 794.97 C 363.58 794.99 375.14 795.03 386.70 795.27 C 387.31 820.63 386.78 845.99 387.15 871.36 C 396.22 863.94 406.06 856.95 417.85 854.77 C 442.60 849.47 470.82 854.49 489.28 872.74 C 517.61 901.82 520.41 951.77 496.19 984.19 C 484.79 998.62 467.61 1008.03 449.53 1011.00 L 426.55 1011.00 C 410.73 1008.79 396.84 1000.29 385.17 989.78 C 385.03 996.26 384.93 1002.72 384.83 1009.24 C 373.90 1009.62 362.96 1009.09 352.04 1009.72 C 351.96 938.13 351.99 866.55 352.02 794.97 M 427.45 882.51 C 414.01 883.12 401.46 890.97 394.19 902.14 C 381.51 922.26 383.64 951.39 400.37 968.63 C 413.14 981.98 434.33 984.40 450.71 976.72 C 472.31 967.25 481.34 939.76 474.93 918.01 C 471.00 896.42 449.55 879.54 427.45 882.51 Z" />
<path fill="#123753" opacity="1.00" d=" M 21.03 866.03 C 35.95 856.11 54.18 851.75 72.01 852.86 C 91.13 852.53 110.25 857.32 126.91 866.70 C 122.77 875.39 118.76 884.15 114.76 892.91 C 101.06 886.49 86.46 880.08 70.99 881.01 C 61.26 881.24 50.31 881.67 42.74 888.73 C 37.17 893.16 36.99 902.29 41.56 907.45 C 44.76 910.62 49.24 912.01 53.37 913.56 C 71.57 918.40 90.76 919.53 108.33 926.70 C 115.05 929.78 121.71 933.80 125.97 940.03 C 136.16 954.54 134.84 975.51 124.65 989.67 C 113.74 1003.27 95.95 1007.94 79.59 1011.00 L 50.47 1011.00 C 32.70 1008.97 15.29 1003.48 0.00 994.13 L 0.00 991.52 C 3.49 983.01 8.08 975.00 12.19 966.80 C 18.41 969.95 24.56 973.28 30.99 976.02 C 47.42 982.64 65.86 983.80 83.16 980.26 C 88.21 978.75 93.65 975.89 96.14 971.08 C 97.30 966.30 98.25 959.59 93.76 956.24 C 83.78 947.68 70.04 947.71 57.82 945.22 C 40.25 942.25 20.30 938.33 9.08 922.94 C -2.71 904.90 3.31 878.00 21.03 866.03 Z" />
<path fill="#123753" opacity="1.00" d=" M 559.38 872.41 C 581.04 853.69 612.47 848.27 639.66 856.37 C 657.76 862.02 673.46 874.97 682.01 891.97 C 690.85 907.33 691.95 925.66 691.12 942.97 C 650.53 943.18 609.93 942.73 569.34 943.16 C 571.19 949.85 574.12 956.21 578.14 961.90 C 588.89 977.15 608.94 983.43 626.94 980.85 C 640.28 981.00 651.80 973.52 661.45 965.09 C 668.57 971.88 675.44 978.93 682.19 986.11 C 669.70 1000.63 651.33 1008.66 632.59 1011.00 L 606.53 1011.00 C 594.21 1008.80 581.85 1005.49 571.15 998.81 C 547.78 985.72 533.41 958.64 534.86 931.99 C 533.71 909.73 542.90 887.39 559.38 872.41 M 578.90 896.92 C 573.49 903.02 572.17 911.36 569.87 918.94 C 599.05 919.34 628.25 918.35 657.42 919.58 C 655.72 909.44 651.64 899.15 643.76 892.24 C 626.01 875.40 593.96 877.42 578.90 896.92 Z" />
<path fill="#123753" opacity="1.00" d=" M 786.33 856.38 C 794.94 853.46 804.00 853.07 813.00 852.84 C 813.01 863.80 813.01 874.78 813.00 885.75 C 802.25 885.77 790.65 885.44 781.07 891.10 C 766.74 898.27 759.74 914.71 759.24 930.03 C 758.51 956.67 759.29 983.34 758.97 1010.00 C 747.31 1010.00 735.67 1010.00 724.03 1010.00 C 723.98 958.33 723.98 906.66 724.03 855.00 C 734.95 854.98 745.88 854.99 756.82 855.00 C 757.03 861.95 757.22 868.92 757.57 875.90 C 765.67 867.57 774.83 859.40 786.33 856.38 Z" />
<path fill="#123753" opacity="1.00" d=" M 1035.77 869.77 C 1052.15 855.63 1074.92 851.29 1096.02 853.00 C 1113.66 852.96 1130.76 858.36 1146.32 866.37 C 1143.05 875.62 1138.37 884.28 1134.01 893.06 C 1119.28 885.40 1103.01 879.23 1086.07 881.19 C 1076.13 881.86 1062.86 883.09 1059.00 894.03 C 1055.87 900.22 1059.46 908.72 1065.95 911.04 C 1086.16 919.29 1108.86 918.46 1128.98 927.04 C 1142.45 932.61 1151.64 945.85 1153.00 960.31 L 1153.00 969.54 C 1150.14 980.49 1145.36 992.14 1135.07 998.08 C 1124.61 1005.63 1111.87 1008.56 1099.44 1011.00 L 1069.59 1011.00 C 1051.87 1008.13 1034.20 1003.36 1018.76 993.93 C 1022.57 984.78 1027.21 976.03 1031.60 967.16 C 1045.62 974.88 1060.83 981.34 1077.06 981.89 C 1088.33 982.06 1100.82 983.15 1110.83 976.85 C 1114.55 974.65 1117.04 970.37 1116.93 966.03 C 1117.72 958.91 1111.70 953.60 1105.62 951.46 C 1084.91 944.19 1061.58 945.81 1041.99 934.98 C 1032.55 930.23 1025.26 921.23 1023.17 910.82 C 1020.48 896.31 1024.34 879.74 1035.77 869.77 Z" />
<path fill="#123753" opacity="1.00" d=" M 161.30 854.99 C 173.19 854.96 185.08 854.97 196.97 855.00 C 197.40 884.65 196.34 914.31 197.28 943.95 C 197.18 958.36 205.36 973.91 219.86 978.17 C 234.49 982.57 252.61 980.01 262.74 967.73 C 272.94 957.26 274.99 941.98 275.04 928.01 C 275.08 903.65 274.73 879.29 274.44 854.93 C 286.13 854.94 297.82 854.95 309.51 855.01 C 308.32 906.65 309.37 958.33 308.98 1010.00 C 298.02 1010.00 287.05 1010.01 276.09 1010.01 C 276.00 1003.54 275.85 997.05 275.73 990.61 C 264.59 1000.54 251.69 1008.86 236.61 1011.00 L 214.54 1011.00 C 203.26 1008.43 191.84 1004.65 182.79 997.18 C 170.28 985.71 162.13 969.13 162.16 952.00 C 161.32 919.67 162.91 887.30 161.30 854.99 Z" />
<path fill="#123753" opacity="1.00" d=" M 840.04 855.00 C 851.67 854.98 863.31 854.99 874.97 855.00 C 875.15 880.34 874.85 905.68 874.94 931.02 C 875.28 943.54 875.03 957.47 883.03 967.98 C 889.66 977.79 902.71 980.90 913.93 979.85 C 924.72 979.67 935.98 975.45 942.70 966.69 C 949.45 959.06 952.71 949.04 952.70 938.95 C 953.64 910.99 952.53 883.01 953.27 855.05 C 964.80 854.97 976.34 854.97 987.89 855.00 C 988.83 906.59 987.32 958.20 988.56 1009.80 C 977.11 1010.04 965.65 1009.97 954.22 1009.76 C 954.06 1003.21 954.06 996.63 954.06 990.11 C 943.88 1001.51 929.56 1008.62 914.56 1011.00 L 893.55 1011.00 C 877.13 1008.01 860.09 1000.75 851.07 985.94 C 841.45 972.71 840.34 955.77 840.06 940.01 C 839.77 911.67 840.07 883.33 840.04 855.00 Z" />
</g>
<g id="#3abebcff">
<path fill="#3abebc" opacity="1.00" d=" M 519.55 99.63 C 538.15 87.55 557.34 76.36 576.80 65.74 C 595.71 76.85 614.76 87.75 633.16 99.70 C 624.50 104.70 616.32 110.92 606.98 114.55 C 596.03 110.48 587.33 101.49 576.00 98.07 C 566.82 101.62 559.08 107.92 550.47 112.58 C 548.24 113.74 545.55 115.58 543.07 113.94 C 535.03 109.52 527.27 104.59 519.55 99.63 Z" />
<path fill="#3abebc" opacity="1.00" d=" M 453.86 138.09 C 462.95 142.66 471.90 147.55 480.34 153.25 C 455.39 168.43 430.27 183.35 404.89 197.82 C 401.29 200.00 396.47 202.69 398.09 207.99 C 397.81 272.01 398.13 336.03 397.98 400.05 C 388.99 395.62 380.37 390.47 372.01 384.96 C 372.01 318.67 371.96 252.37 372.03 186.08 C 399.13 169.79 426.21 153.43 453.86 138.09 Z" />
<path fill="#3abebc" opacity="1.00" d=" M 698.30 138.05 C 725.43 154.21 753.40 169.00 780.00 186.04 C 780.09 249.37 779.82 312.70 780.16 376.02 C 779.33 379.03 781.33 383.87 778.22 386.20 C 770.74 391.79 762.25 395.77 754.14 400.35 C 753.69 335.23 754.29 270.10 753.90 204.98 C 753.99 202.04 751.12 200.39 748.98 199.04 C 723.47 183.53 697.31 169.09 671.93 153.36 C 680.28 147.55 689.21 142.61 698.30 138.05 Z" />
<path fill="#3abebc" opacity="1.00" d=" M 621.89 182.91 C 654.51 200.57 686.06 220.13 718.02 238.93 C 721.57 241.11 726.62 243.63 724.91 248.99 C 725.20 324.00 724.80 399.01 725.10 474.02 C 724.64 477.66 726.00 483.57 721.79 485.71 C 714.13 490.63 706.19 495.12 698.16 499.41 C 697.76 419.29 698.14 339.16 697.98 259.03 C 680.69 247.53 662.68 237.02 644.22 227.50 C 644.11 242.89 643.29 258.32 644.34 273.69 C 648.28 278.06 653.96 280.73 656.95 286.03 C 663.32 295.69 661.91 309.55 653.83 317.83 C 644.45 326.90 627.90 327.88 618.19 318.79 C 608.04 310.02 605.88 292.58 615.83 282.84 C 620.11 277.92 629.21 275.31 626.81 266.98 C 626.56 250.43 626.44 233.83 626.64 217.32 C 617.29 209.68 605.65 205.11 595.74 198.09 C 604.26 192.70 612.95 187.58 621.89 182.91 M 633.33 289.35 C 627.24 290.52 622.29 298.16 626.07 303.91 C 629.83 309.67 640.31 311.72 643.96 304.90 C 648.26 297.79 641.56 287.52 633.33 289.35 Z" />
<path fill="#3abebc" opacity="1.00" d=" M 316.16 217.33 C 324.88 212.11 333.54 206.70 342.86 202.59 C 343.24 266.00 342.82 329.41 343.05 392.82 C 361.88 402.66 379.65 414.34 398.00 425.01 C 397.89 451.55 398.06 478.10 398.48 504.64 C 401.68 508.57 406.83 510.30 410.99 513.04 C 434.20 526.05 456.76 540.16 479.82 553.45 C 479.99 563.71 480.02 573.98 479.93 584.26 C 443.53 564.23 407.95 542.77 372.05 521.89 C 371.71 496.92 372.39 471.95 371.89 446.99 C 373.79 440.61 367.32 438.33 363.32 435.66 C 347.48 426.54 331.60 417.47 316.07 407.84 C 316.01 344.33 315.82 280.83 316.16 217.33 Z" />
<path fill="#3abebc" opacity="1.00" d=" M 809.35 202.80 C 818.51 207.04 827.13 212.30 835.79 217.46 C 836.23 280.92 835.96 344.39 835.93 407.85 C 819.08 418.11 802.21 428.36 785.06 438.11 C 781.78 439.69 778.69 442.77 780.08 446.99 C 779.64 466.68 780.18 486.38 780.02 506.08 C 746.02 525.64 712.53 546.09 678.36 565.37 C 675.35 567.57 671.08 568.78 669.41 572.38 C 667.70 596.52 671.07 620.76 669.19 644.91 C 658.02 651.83 646.96 658.96 635.53 665.45 C 633.15 666.97 630.25 668.46 629.42 671.39 C 628.43 684.90 630.49 698.50 629.04 712.01 C 623.37 711.77 617.70 711.63 612.06 711.04 C 612.44 693.86 610.81 676.46 612.78 659.41 C 625.07 650.12 638.99 643.20 651.93 634.83 C 652.15 606.58 651.87 578.32 652.04 550.07 C 677.22 535.22 702.08 519.84 727.53 505.46 C 735.67 499.78 744.93 495.90 752.70 489.67 C 754.71 486.19 753.39 481.77 754.05 478.03 C 754.18 460.40 753.84 442.77 754.05 425.14 C 772.43 414.53 790.29 403.02 808.95 392.88 C 809.31 329.52 808.48 266.15 809.35 202.80 Z" />
<path fill="#3abebc" opacity="1.00" d=" M 568.02 215.95 C 571.04 214.51 574.52 210.84 577.98 212.96 C 581.23 215.39 586.94 217.52 584.96 222.98 C 585.34 256.12 584.58 289.28 585.22 322.43 C 590.16 326.10 596.28 329.06 599.37 334.65 C 602.53 342.40 603.36 351.73 599.27 359.30 C 592.65 372.01 574.05 377.61 562.18 368.83 C 552.45 362.97 547.65 350.17 551.43 339.41 C 553.17 332.67 559.07 328.32 564.33 324.29 C 568.33 321.66 567.60 316.06 567.91 312.01 C 568.30 279.98 567.19 247.97 568.02 215.95 M 565.07 352.07 C 569.82 354.92 575.29 360.04 581.21 356.24 C 589.89 352.71 587.20 337.68 577.87 337.20 C 569.10 335.45 564.85 344.91 565.07 352.07 Z" />
<path fill="#3abebc" opacity="1.00" d=" M 550.50 593.40 C 546.90 578.18 560.71 562.57 576.00 563.21 C 589.79 562.42 602.63 575.24 601.83 589.04 C 602.94 600.26 594.53 609.56 585.32 614.67 C 584.18 646.77 586.10 678.93 584.24 711.01 C 578.82 711.00 573.42 710.99 568.02 711.00 C 567.87 679.07 568.18 647.14 567.90 615.21 C 559.78 610.49 551.07 603.58 550.50 593.40 M 577.24 578.41 C 568.67 577.34 562.68 588.41 568.05 594.94 C 572.08 601.97 584.37 599.80 586.04 591.99 C 587.11 585.86 583.66 579.43 577.24 578.41 Z" />
<path fill="#3abebc" opacity="1.00" d=" M 491.49 644.56 C 487.16 628.16 502.87 610.06 519.86 613.09 C 531.62 614.21 541.93 624.52 542.50 636.39 C 542.76 643.48 541.33 651.68 535.43 656.35 C 532.36 659.81 525.90 661.57 525.42 666.91 C 524.37 681.57 525.37 696.28 525.24 710.97 C 519.48 710.97 513.74 710.98 508.00 711.01 C 507.99 695.13 508.08 679.26 507.88 663.40 C 500.64 659.26 493.13 653.17 491.49 644.56 M 514.41 629.38 C 506.22 630.37 503.47 642.37 510.27 646.76 C 515.68 652.07 527.34 648.06 527.05 640.05 C 528.32 633.27 520.66 627.29 514.41 629.38 Z" />
</g>
</svg>
